<mxfile host="app.diagrams.net" modified="2024-03-23T00:14:38.553Z" agent="Mozilla/5.0 (Windows NT 10.0; Win64; x64) AppleWebKit/537.36 (KHTML, like Gecko) Chrome/122.0.0.0 Safari/537.36" etag="mOw3awm1F9KRc0Ce_A99" version="24.0.7" type="device">
  <diagram id="e4M1YiTKaVvILRxaYLhg" name="Page-1">
    <mxGraphModel dx="1484" dy="853" grid="1" gridSize="10" guides="1" tooltips="1" connect="1" arrows="1" fold="1" page="1" pageScale="1" pageWidth="850" pageHeight="1100" background="none" math="0" shadow="0">
      <root>
        <mxCell id="0" />
        <mxCell id="1" parent="0" />
        <mxCell id="KQ9klTBVaFzwKnCXzLHx-1" value="Patient" style="rounded=0;whiteSpace=wrap;html=1;shadow=0;" parent="1" vertex="1">
          <mxGeometry x="363" y="195" width="60" height="30" as="geometry" />
        </mxCell>
        <mxCell id="KQ9klTBVaFzwKnCXzLHx-21" style="edgeStyle=orthogonalEdgeStyle;rounded=0;orthogonalLoop=1;jettySize=auto;html=1;exitX=0.5;exitY=0;exitDx=0;exitDy=0;entryX=0.5;entryY=1;entryDx=0;entryDy=0;strokeWidth=3;shadow=0;" parent="1" source="KQ9klTBVaFzwKnCXzLHx-2" target="KQ9klTBVaFzwKnCXzLHx-3" edge="1">
          <mxGeometry relative="1" as="geometry" />
        </mxCell>
        <mxCell id="KQ9klTBVaFzwKnCXzLHx-2" value="Admission" style="rounded=0;whiteSpace=wrap;html=1;shadow=0;" parent="1" vertex="1">
          <mxGeometry x="358" y="478" width="70" height="40" as="geometry" />
        </mxCell>
        <mxCell id="KQ9klTBVaFzwKnCXzLHx-3" value="Admit" style="rhombus;whiteSpace=wrap;html=1;shadow=0;" parent="1" vertex="1">
          <mxGeometry x="358" y="261" width="70" height="60" as="geometry" />
        </mxCell>
        <mxCell id="KQ9klTBVaFzwKnCXzLHx-23" style="edgeStyle=orthogonalEdgeStyle;rounded=0;orthogonalLoop=1;jettySize=auto;html=1;exitX=0;exitY=0.5;exitDx=0;exitDy=0;entryX=1;entryY=0.5;entryDx=0;entryDy=0;shadow=0;" parent="1" source="KQ9klTBVaFzwKnCXzLHx-6" target="KQ9klTBVaFzwKnCXzLHx-7" edge="1">
          <mxGeometry relative="1" as="geometry" />
        </mxCell>
        <mxCell id="KQ9klTBVaFzwKnCXzLHx-6" value="Insurance&lt;div&gt;Provider&lt;/div&gt;" style="rounded=0;whiteSpace=wrap;html=1;shadow=0;" parent="1" vertex="1">
          <mxGeometry x="603" y="190" width="60" height="40" as="geometry" />
        </mxCell>
        <mxCell id="KQ9klTBVaFzwKnCXzLHx-7" value="Holds" style="rhombus;whiteSpace=wrap;html=1;shadow=0;" parent="1" vertex="1">
          <mxGeometry x="473" y="180" width="70" height="60" as="geometry" />
        </mxCell>
        <mxCell id="KQ9klTBVaFzwKnCXzLHx-8" value="Tests" style="rhombus;whiteSpace=wrap;html=1;shadow=0;" parent="1" vertex="1">
          <mxGeometry x="193" y="498" width="70" height="60" as="geometry" />
        </mxCell>
        <mxCell id="KQ9klTBVaFzwKnCXzLHx-10" value="Assign" style="rhombus;whiteSpace=wrap;html=1;shadow=0;" parent="1" vertex="1">
          <mxGeometry x="223" y="568" width="70" height="60" as="geometry" />
        </mxCell>
        <mxCell id="KQ9klTBVaFzwKnCXzLHx-11" value="Has" style="rhombus;whiteSpace=wrap;html=1;shadow=0;" parent="1" vertex="1">
          <mxGeometry x="317" y="623" width="70" height="60" as="geometry" />
        </mxCell>
        <mxCell id="KQ9klTBVaFzwKnCXzLHx-12" value="Need" style="rhombus;whiteSpace=wrap;html=1;shadow=0;" parent="1" vertex="1">
          <mxGeometry x="523" y="498" width="70" height="60" as="geometry" />
        </mxCell>
        <mxCell id="KQ9klTBVaFzwKnCXzLHx-13" value="Assign" style="rhombus;whiteSpace=wrap;html=1;shadow=0;" parent="1" vertex="1">
          <mxGeometry x="393" y="623" width="70" height="60" as="geometry" />
        </mxCell>
        <mxCell id="KQ9klTBVaFzwKnCXzLHx-14" value="Has" style="rhombus;whiteSpace=wrap;html=1;shadow=0;" parent="1" vertex="1">
          <mxGeometry x="503" y="413" width="70" height="60" as="geometry" />
        </mxCell>
        <mxCell id="KQ9klTBVaFzwKnCXzLHx-15" value="DiagAdm" style="rhombus;whiteSpace=wrap;html=1;shadow=0;" parent="1" vertex="1">
          <mxGeometry x="473" y="568" width="70" height="60" as="geometry" />
        </mxCell>
        <mxCell id="KQ9klTBVaFzwKnCXzLHx-17" value="" style="endArrow=classic;html=1;rounded=0;entryX=0;entryY=0.5;entryDx=0;entryDy=0;exitX=1;exitY=0;exitDx=0;exitDy=0;shadow=0;strokeWidth=3;" parent="1" source="KQ9klTBVaFzwKnCXzLHx-2" target="KQ9klTBVaFzwKnCXzLHx-14" edge="1">
          <mxGeometry width="50" height="50" relative="1" as="geometry">
            <mxPoint x="413" y="548" as="sourcePoint" />
            <mxPoint x="463" y="498" as="targetPoint" />
          </mxGeometry>
        </mxCell>
        <mxCell id="KQ9klTBVaFzwKnCXzLHx-32" style="edgeStyle=orthogonalEdgeStyle;rounded=0;orthogonalLoop=1;jettySize=auto;html=1;exitX=0;exitY=0.5;exitDx=0;exitDy=0;entryX=1;entryY=0.5;entryDx=0;entryDy=0;shadow=0;strokeWidth=3;" parent="1" source="KQ9klTBVaFzwKnCXzLHx-18" target="KQ9klTBVaFzwKnCXzLHx-14" edge="1">
          <mxGeometry relative="1" as="geometry" />
        </mxCell>
        <mxCell id="KQ9klTBVaFzwKnCXzLHx-18" value="Billing" style="rounded=0;whiteSpace=wrap;html=1;shadow=0;" parent="1" vertex="1">
          <mxGeometry x="623" y="428" width="60" height="30" as="geometry" />
        </mxCell>
        <mxCell id="KQ9klTBVaFzwKnCXzLHx-35" style="edgeStyle=orthogonalEdgeStyle;rounded=0;orthogonalLoop=1;jettySize=auto;html=1;exitX=0;exitY=0.5;exitDx=0;exitDy=0;entryX=1;entryY=0.5;entryDx=0;entryDy=0;endArrow=none;endFill=0;shadow=0;" parent="1" source="KQ9klTBVaFzwKnCXzLHx-24" target="KQ9klTBVaFzwKnCXzLHx-12" edge="1">
          <mxGeometry relative="1" as="geometry" />
        </mxCell>
        <mxCell id="KQ9klTBVaFzwKnCXzLHx-24" value="Medication" style="rounded=0;whiteSpace=wrap;html=1;shadow=0;" parent="1" vertex="1">
          <mxGeometry x="643" y="513" width="70" height="30" as="geometry" />
        </mxCell>
        <mxCell id="KQ9klTBVaFzwKnCXzLHx-25" value="Diagnosis" style="rounded=0;whiteSpace=wrap;html=1;shadow=0;" parent="1" vertex="1">
          <mxGeometry x="603" y="583" width="60" height="30" as="geometry" />
        </mxCell>
        <mxCell id="KQ9klTBVaFzwKnCXzLHx-27" value="Treats" style="rhombus;whiteSpace=wrap;html=1;shadow=0;" parent="1" vertex="1">
          <mxGeometry x="703" y="552" width="70" height="60" as="geometry" />
        </mxCell>
        <mxCell id="KQ9klTBVaFzwKnCXzLHx-34" value="" style="endArrow=classic;html=1;rounded=0;entryX=0;entryY=0.5;entryDx=0;entryDy=0;exitX=1;exitY=0.5;exitDx=0;exitDy=0;shadow=0;" parent="1" source="KQ9klTBVaFzwKnCXzLHx-2" target="KQ9klTBVaFzwKnCXzLHx-12" edge="1">
          <mxGeometry width="50" height="50" relative="1" as="geometry">
            <mxPoint x="438" y="488" as="sourcePoint" />
            <mxPoint x="513" y="453" as="targetPoint" />
          </mxGeometry>
        </mxCell>
        <mxCell id="KQ9klTBVaFzwKnCXzLHx-37" style="edgeStyle=orthogonalEdgeStyle;rounded=0;orthogonalLoop=1;jettySize=auto;html=1;exitX=1;exitY=0.5;exitDx=0;exitDy=0;entryX=0.5;entryY=0;entryDx=0;entryDy=0;shadow=0;" parent="1" source="KQ9klTBVaFzwKnCXzLHx-24" edge="1">
          <mxGeometry relative="1" as="geometry">
            <mxPoint x="835" y="543" as="sourcePoint" />
            <mxPoint x="738" y="553" as="targetPoint" />
          </mxGeometry>
        </mxCell>
        <mxCell id="KQ9klTBVaFzwKnCXzLHx-39" value="" style="endArrow=none;html=1;rounded=0;entryX=0;entryY=1;entryDx=0;entryDy=0;exitX=1;exitY=0.5;exitDx=0;exitDy=0;endFill=0;shadow=0;strokeWidth=3;" parent="1" source="KQ9klTBVaFzwKnCXzLHx-25" edge="1">
          <mxGeometry width="50" height="50" relative="1" as="geometry">
            <mxPoint x="673" y="668" as="sourcePoint" />
            <mxPoint x="720.5" y="598" as="targetPoint" />
          </mxGeometry>
        </mxCell>
        <mxCell id="KQ9klTBVaFzwKnCXzLHx-41" value="" style="endArrow=none;html=1;rounded=0;entryX=1;entryY=0.5;entryDx=0;entryDy=0;exitX=0;exitY=0.5;exitDx=0;exitDy=0;endFill=0;shadow=0;" parent="1" source="KQ9klTBVaFzwKnCXzLHx-25" target="KQ9klTBVaFzwKnCXzLHx-15" edge="1">
          <mxGeometry width="50" height="50" relative="1" as="geometry">
            <mxPoint x="533" y="678" as="sourcePoint" />
            <mxPoint x="583" y="628" as="targetPoint" />
          </mxGeometry>
        </mxCell>
        <mxCell id="KQ9klTBVaFzwKnCXzLHx-43" value="" style="endArrow=none;html=1;rounded=0;entryX=0;entryY=0;entryDx=0;entryDy=0;exitX=1;exitY=1;exitDx=0;exitDy=0;endFill=0;shadow=0;strokeWidth=3;" parent="1" source="KQ9klTBVaFzwKnCXzLHx-2" target="KQ9klTBVaFzwKnCXzLHx-15" edge="1">
          <mxGeometry width="50" height="50" relative="1" as="geometry">
            <mxPoint x="428" y="593" as="sourcePoint" />
            <mxPoint x="478" y="543" as="targetPoint" />
          </mxGeometry>
        </mxCell>
        <mxCell id="KQ9klTBVaFzwKnCXzLHx-45" value="" style="endArrow=classic;html=1;rounded=0;entryX=0.5;entryY=0;entryDx=0;entryDy=0;exitX=0.75;exitY=1;exitDx=0;exitDy=0;shadow=0;strokeWidth=3;" parent="1" source="KQ9klTBVaFzwKnCXzLHx-2" target="KQ9klTBVaFzwKnCXzLHx-13" edge="1">
          <mxGeometry width="50" height="50" relative="1" as="geometry">
            <mxPoint x="403" y="528" as="sourcePoint" />
            <mxPoint x="463" y="408" as="targetPoint" />
          </mxGeometry>
        </mxCell>
        <mxCell id="KQ9klTBVaFzwKnCXzLHx-47" style="edgeStyle=orthogonalEdgeStyle;rounded=0;orthogonalLoop=1;jettySize=auto;html=1;exitX=0.5;exitY=0;exitDx=0;exitDy=0;entryX=0.5;entryY=1;entryDx=0;entryDy=0;endArrow=none;endFill=0;shadow=0;" parent="1" source="KQ9klTBVaFzwKnCXzLHx-46" target="KQ9klTBVaFzwKnCXzLHx-13" edge="1">
          <mxGeometry relative="1" as="geometry" />
        </mxCell>
        <mxCell id="KQ9klTBVaFzwKnCXzLHx-46" value="Doctor" style="rounded=0;whiteSpace=wrap;html=1;shadow=0;" parent="1" vertex="1">
          <mxGeometry x="398" y="723" width="60" height="30" as="geometry" />
        </mxCell>
        <mxCell id="KQ9klTBVaFzwKnCXzLHx-48" value="Test" style="rounded=0;whiteSpace=wrap;html=1;shadow=0;" parent="1" vertex="1">
          <mxGeometry x="81.5" y="513" width="60" height="30" as="geometry" />
        </mxCell>
        <mxCell id="KQ9klTBVaFzwKnCXzLHx-49" value="" style="endArrow=classic;html=1;rounded=0;exitX=0.25;exitY=1;exitDx=0;exitDy=0;entryX=0.5;entryY=0;entryDx=0;entryDy=0;shadow=0;strokeWidth=3;" parent="1" source="KQ9klTBVaFzwKnCXzLHx-2" target="KQ9klTBVaFzwKnCXzLHx-11" edge="1">
          <mxGeometry width="50" height="50" relative="1" as="geometry">
            <mxPoint x="413" y="548" as="sourcePoint" />
            <mxPoint x="463" y="498" as="targetPoint" />
          </mxGeometry>
        </mxCell>
        <mxCell id="KQ9klTBVaFzwKnCXzLHx-50" value="Hospital" style="rounded=0;whiteSpace=wrap;html=1;shadow=0;" parent="1" vertex="1">
          <mxGeometry x="322" y="723" width="60" height="30" as="geometry" />
        </mxCell>
        <mxCell id="KQ9klTBVaFzwKnCXzLHx-52" value="" style="endArrow=none;html=1;rounded=0;exitX=0.5;exitY=0;exitDx=0;exitDy=0;entryX=0.5;entryY=1;entryDx=0;entryDy=0;endFill=0;shadow=0;" parent="1" source="KQ9klTBVaFzwKnCXzLHx-50" target="KQ9klTBVaFzwKnCXzLHx-11" edge="1">
          <mxGeometry width="50" height="50" relative="1" as="geometry">
            <mxPoint x="343" y="713" as="sourcePoint" />
            <mxPoint x="393" y="663" as="targetPoint" />
          </mxGeometry>
        </mxCell>
        <mxCell id="KQ9klTBVaFzwKnCXzLHx-54" value="Employs" style="rhombus;whiteSpace=wrap;html=1;shadow=0;" parent="1" vertex="1">
          <mxGeometry x="350" y="783" width="70" height="60" as="geometry" />
        </mxCell>
        <mxCell id="KQ9klTBVaFzwKnCXzLHx-55" value="" style="endArrow=classic;html=1;rounded=0;entryX=1;entryY=0;entryDx=0;entryDy=0;exitX=0.5;exitY=1;exitDx=0;exitDy=0;shadow=0;" parent="1" source="KQ9klTBVaFzwKnCXzLHx-46" target="KQ9klTBVaFzwKnCXzLHx-54" edge="1">
          <mxGeometry width="50" height="50" relative="1" as="geometry">
            <mxPoint x="413" y="770" as="sourcePoint" />
            <mxPoint x="463" y="720" as="targetPoint" />
          </mxGeometry>
        </mxCell>
        <mxCell id="KQ9klTBVaFzwKnCXzLHx-56" value="" style="endArrow=none;html=1;rounded=0;entryX=0;entryY=0;entryDx=0;entryDy=0;exitX=0.5;exitY=1;exitDx=0;exitDy=0;endFill=0;shadow=0;strokeWidth=3;" parent="1" source="KQ9klTBVaFzwKnCXzLHx-50" target="KQ9klTBVaFzwKnCXzLHx-54" edge="1">
          <mxGeometry width="50" height="50" relative="1" as="geometry">
            <mxPoint x="351" y="763" as="sourcePoint" />
            <mxPoint x="304" y="818" as="targetPoint" />
          </mxGeometry>
        </mxCell>
        <mxCell id="KQ9klTBVaFzwKnCXzLHx-57" value="Room" style="rounded=0;whiteSpace=wrap;html=1;shadow=0;" parent="1" vertex="1">
          <mxGeometry x="165" y="638" width="50" height="30" as="geometry" />
        </mxCell>
        <mxCell id="KQ9klTBVaFzwKnCXzLHx-60" value="" style="endArrow=none;html=1;rounded=0;exitX=1;exitY=0;exitDx=0;exitDy=0;endFill=0;entryX=0;entryY=1;entryDx=0;entryDy=0;shadow=0;" parent="1" source="KQ9klTBVaFzwKnCXzLHx-57" target="KQ9klTBVaFzwKnCXzLHx-10" edge="1">
          <mxGeometry width="50" height="50" relative="1" as="geometry">
            <mxPoint x="240" y="643" as="sourcePoint" />
            <mxPoint x="243" y="638" as="targetPoint" />
          </mxGeometry>
        </mxCell>
        <mxCell id="KQ9klTBVaFzwKnCXzLHx-61" value="" style="endArrow=classic;html=1;rounded=0;entryX=1;entryY=0;entryDx=0;entryDy=0;exitX=0;exitY=1;exitDx=0;exitDy=0;shadow=0;" parent="1" source="KQ9klTBVaFzwKnCXzLHx-2" target="KQ9klTBVaFzwKnCXzLHx-10" edge="1">
          <mxGeometry width="50" height="50" relative="1" as="geometry">
            <mxPoint x="281.5" y="658" as="sourcePoint" />
            <mxPoint x="234.5" y="713" as="targetPoint" />
          </mxGeometry>
        </mxCell>
        <mxCell id="KQ9klTBVaFzwKnCXzLHx-62" value="Contains" style="rhombus;whiteSpace=wrap;html=1;shadow=0;" parent="1" vertex="1">
          <mxGeometry x="155" y="707" width="70" height="60" as="geometry" />
        </mxCell>
        <mxCell id="KQ9klTBVaFzwKnCXzLHx-63" value="" style="endArrow=none;html=1;rounded=0;entryX=1;entryY=0.5;entryDx=0;entryDy=0;endFill=0;exitX=0;exitY=0.5;exitDx=0;exitDy=0;shadow=0;strokeWidth=3;" parent="1" source="KQ9klTBVaFzwKnCXzLHx-50" target="KQ9klTBVaFzwKnCXzLHx-62" edge="1">
          <mxGeometry width="50" height="50" relative="1" as="geometry">
            <mxPoint x="310" y="772" as="sourcePoint" />
            <mxPoint x="298" y="782" as="targetPoint" />
          </mxGeometry>
        </mxCell>
        <mxCell id="KQ9klTBVaFzwKnCXzLHx-64" value="" style="endArrow=classic;html=1;rounded=0;exitX=0.5;exitY=1;exitDx=0;exitDy=0;entryX=0.5;entryY=0;entryDx=0;entryDy=0;shadow=0;strokeWidth=3;" parent="1" source="KQ9klTBVaFzwKnCXzLHx-57" target="KQ9klTBVaFzwKnCXzLHx-62" edge="1">
          <mxGeometry width="50" height="50" relative="1" as="geometry">
            <mxPoint x="175" y="742" as="sourcePoint" />
            <mxPoint x="130" y="752" as="targetPoint" />
          </mxGeometry>
        </mxCell>
        <mxCell id="KQ9klTBVaFzwKnCXzLHx-65" value="" style="endArrow=none;html=1;rounded=0;exitX=0;exitY=0.5;exitDx=0;exitDy=0;entryX=1;entryY=0.5;entryDx=0;entryDy=0;endFill=0;shadow=0;" parent="1" source="KQ9klTBVaFzwKnCXzLHx-2" target="KQ9klTBVaFzwKnCXzLHx-8" edge="1">
          <mxGeometry width="50" height="50" relative="1" as="geometry">
            <mxPoint x="263" y="498" as="sourcePoint" />
            <mxPoint x="313" y="448" as="targetPoint" />
          </mxGeometry>
        </mxCell>
        <mxCell id="KQ9klTBVaFzwKnCXzLHx-67" value="" style="endArrow=classic;html=1;rounded=0;entryX=0;entryY=0.5;entryDx=0;entryDy=0;exitX=1;exitY=0.5;exitDx=0;exitDy=0;shadow=0;" parent="1" source="KQ9klTBVaFzwKnCXzLHx-48" target="KQ9klTBVaFzwKnCXzLHx-8" edge="1">
          <mxGeometry width="50" height="50" relative="1" as="geometry">
            <mxPoint x="163" y="618" as="sourcePoint" />
            <mxPoint x="213" y="568" as="targetPoint" />
          </mxGeometry>
        </mxCell>
        <mxCell id="KQ9klTBVaFzwKnCXzLHx-68" value="Type" style="rhombus;whiteSpace=wrap;html=1;shadow=0;" parent="1" vertex="1">
          <mxGeometry x="213" y="413" width="70" height="60" as="geometry" />
        </mxCell>
        <mxCell id="KQ9klTBVaFzwKnCXzLHx-69" value="" style="endArrow=none;html=1;rounded=0;entryX=0;entryY=0.5;entryDx=0;entryDy=0;exitX=1;exitY=0.5;exitDx=0;exitDy=0;endFill=0;shadow=0;" parent="1" source="KQ9klTBVaFzwKnCXzLHx-70" target="KQ9klTBVaFzwKnCXzLHx-68" edge="1">
          <mxGeometry width="50" height="50" relative="1" as="geometry">
            <mxPoint x="153" y="448" as="sourcePoint" />
            <mxPoint x="87" y="498" as="targetPoint" />
          </mxGeometry>
        </mxCell>
        <mxCell id="KQ9klTBVaFzwKnCXzLHx-70" value="AdmissionType" style="rounded=0;whiteSpace=wrap;html=1;shadow=0;" parent="1" vertex="1">
          <mxGeometry x="83" y="428" width="90" height="30" as="geometry" />
        </mxCell>
        <mxCell id="KQ9klTBVaFzwKnCXzLHx-72" value="" style="endArrow=classic;html=1;rounded=0;exitX=0;exitY=0;exitDx=0;exitDy=0;entryX=1;entryY=0.5;entryDx=0;entryDy=0;shadow=0;strokeWidth=3;" parent="1" source="KQ9klTBVaFzwKnCXzLHx-2" target="KQ9klTBVaFzwKnCXzLHx-68" edge="1">
          <mxGeometry width="50" height="50" relative="1" as="geometry">
            <mxPoint x="413" y="568" as="sourcePoint" />
            <mxPoint x="463" y="518" as="targetPoint" />
          </mxGeometry>
        </mxCell>
        <mxCell id="KQ9klTBVaFzwKnCXzLHx-73" value="Results" style="rhombus;whiteSpace=wrap;html=1;shadow=0;" parent="1" vertex="1">
          <mxGeometry x="61.5" y="592" width="70" height="60" as="geometry" />
        </mxCell>
        <mxCell id="KQ9klTBVaFzwKnCXzLHx-74" value="TestResult" style="rounded=0;whiteSpace=wrap;html=1;shadow=0;" parent="1" vertex="1">
          <mxGeometry x="58" y="688" width="77" height="30" as="geometry" />
        </mxCell>
        <mxCell id="KQ9klTBVaFzwKnCXzLHx-75" value="" style="endArrow=classic;html=1;rounded=0;exitX=0.25;exitY=1;exitDx=0;exitDy=0;endFill=1;entryX=0.5;entryY=0;entryDx=0;entryDy=0;shadow=0;" parent="1" source="KQ9klTBVaFzwKnCXzLHx-48" target="KQ9klTBVaFzwKnCXzLHx-73" edge="1">
          <mxGeometry width="50" height="50" relative="1" as="geometry">
            <mxPoint x="190" y="648" as="sourcePoint" />
            <mxPoint x="130" y="559" as="targetPoint" />
          </mxGeometry>
        </mxCell>
        <mxCell id="KQ9klTBVaFzwKnCXzLHx-76" value="" style="endArrow=none;html=1;rounded=0;entryX=0.5;entryY=1;entryDx=0;entryDy=0;exitX=0.5;exitY=0;exitDx=0;exitDy=0;endFill=0;shadow=0;strokeWidth=3;" parent="1" source="KQ9klTBVaFzwKnCXzLHx-74" target="KQ9klTBVaFzwKnCXzLHx-73" edge="1">
          <mxGeometry width="50" height="50" relative="1" as="geometry">
            <mxPoint x="96.5" y="681" as="sourcePoint" />
            <mxPoint x="128" y="639" as="targetPoint" />
          </mxGeometry>
        </mxCell>
        <mxCell id="7TMVgaN9HvynGizzWNEZ-8" value="BloodGroup" style="rounded=0;whiteSpace=wrap;html=1;shadow=0;" parent="1" vertex="1">
          <mxGeometry x="110" y="195" width="77" height="30" as="geometry" />
        </mxCell>
        <mxCell id="7TMVgaN9HvynGizzWNEZ-9" value="Holds" style="rhombus;whiteSpace=wrap;html=1;shadow=0;" parent="1" vertex="1">
          <mxGeometry x="231" y="180" width="70" height="60" as="geometry" />
        </mxCell>
        <mxCell id="7TMVgaN9HvynGizzWNEZ-10" value="" style="endArrow=classic;html=1;rounded=0;exitX=0;exitY=0.5;exitDx=0;exitDy=0;entryX=1;entryY=0.5;entryDx=0;entryDy=0;shadow=0;strokeWidth=3;" parent="1" source="KQ9klTBVaFzwKnCXzLHx-1" target="7TMVgaN9HvynGizzWNEZ-9" edge="1">
          <mxGeometry width="50" height="50" relative="1" as="geometry">
            <mxPoint x="345" y="210" as="sourcePoint" />
            <mxPoint x="422" y="310" as="targetPoint" />
          </mxGeometry>
        </mxCell>
        <mxCell id="7TMVgaN9HvynGizzWNEZ-12" value="" style="endArrow=none;html=1;rounded=0;exitX=1;exitY=0.5;exitDx=0;exitDy=0;entryX=0;entryY=0.5;entryDx=0;entryDy=0;endFill=0;shadow=0;" parent="1" source="7TMVgaN9HvynGizzWNEZ-8" target="7TMVgaN9HvynGizzWNEZ-9" edge="1">
          <mxGeometry width="50" height="50" relative="1" as="geometry">
            <mxPoint x="390" y="360" as="sourcePoint" />
            <mxPoint x="440" y="310" as="targetPoint" />
          </mxGeometry>
        </mxCell>
        <mxCell id="7TMVgaN9HvynGizzWNEZ-13" value="&lt;u&gt;PatientID&lt;/u&gt;" style="ellipse;whiteSpace=wrap;html=1;shadow=0;" parent="1" vertex="1">
          <mxGeometry x="273" y="158" width="70" height="30" as="geometry" />
        </mxCell>
        <mxCell id="7TMVgaN9HvynGizzWNEZ-15" value="BloodTypeID(FK)" style="ellipse;whiteSpace=wrap;html=1;shadow=0;" parent="1" vertex="1">
          <mxGeometry x="343" y="68" width="102" height="30" as="geometry" />
        </mxCell>
        <mxCell id="7TMVgaN9HvynGizzWNEZ-18" value="Name" style="ellipse;whiteSpace=wrap;html=1;shadow=0;" parent="1" vertex="1">
          <mxGeometry x="324" y="118" width="50" height="30" as="geometry" />
        </mxCell>
        <mxCell id="7TMVgaN9HvynGizzWNEZ-27" value="Age" style="ellipse;whiteSpace=wrap;html=1;shadow=0;" parent="1" vertex="1">
          <mxGeometry x="406" y="118" width="50" height="30" as="geometry" />
        </mxCell>
        <mxCell id="7TMVgaN9HvynGizzWNEZ-28" value="Gender" style="ellipse;whiteSpace=wrap;html=1;shadow=0;" parent="1" vertex="1">
          <mxGeometry x="443" y="158" width="50" height="30" as="geometry" />
        </mxCell>
        <mxCell id="7TMVgaN9HvynGizzWNEZ-31" value="" style="endArrow=none;html=1;rounded=0;exitX=0;exitY=0;exitDx=0;exitDy=0;entryX=0.979;entryY=0.786;entryDx=0;entryDy=0;entryPerimeter=0;shadow=0;" parent="1" source="KQ9klTBVaFzwKnCXzLHx-1" target="7TMVgaN9HvynGizzWNEZ-13" edge="1">
          <mxGeometry width="50" height="50" relative="1" as="geometry">
            <mxPoint x="400" y="198" as="sourcePoint" />
            <mxPoint x="450" y="148" as="targetPoint" />
          </mxGeometry>
        </mxCell>
        <mxCell id="7TMVgaN9HvynGizzWNEZ-32" value="" style="endArrow=none;html=1;rounded=0;exitX=0.25;exitY=0;exitDx=0;exitDy=0;entryX=0.713;entryY=1.04;entryDx=0;entryDy=0;entryPerimeter=0;shadow=0;" parent="1" source="KQ9klTBVaFzwKnCXzLHx-1" target="7TMVgaN9HvynGizzWNEZ-18" edge="1">
          <mxGeometry width="50" height="50" relative="1" as="geometry">
            <mxPoint x="373" y="205" as="sourcePoint" />
            <mxPoint x="351" y="192" as="targetPoint" />
          </mxGeometry>
        </mxCell>
        <mxCell id="7TMVgaN9HvynGizzWNEZ-33" value="" style="endArrow=none;html=1;rounded=0;entryX=0.5;entryY=1;entryDx=0;entryDy=0;exitX=0.5;exitY=0;exitDx=0;exitDy=0;shadow=0;" parent="1" source="KQ9klTBVaFzwKnCXzLHx-1" target="7TMVgaN9HvynGizzWNEZ-15" edge="1">
          <mxGeometry width="50" height="50" relative="1" as="geometry">
            <mxPoint x="388" y="188" as="sourcePoint" />
            <mxPoint x="372" y="162" as="targetPoint" />
          </mxGeometry>
        </mxCell>
        <mxCell id="7TMVgaN9HvynGizzWNEZ-35" value="" style="endArrow=none;html=1;rounded=0;entryX=0.311;entryY=0.945;entryDx=0;entryDy=0;entryPerimeter=0;exitX=0.75;exitY=0;exitDx=0;exitDy=0;shadow=0;" parent="1" source="KQ9klTBVaFzwKnCXzLHx-1" target="7TMVgaN9HvynGizzWNEZ-27" edge="1">
          <mxGeometry width="50" height="50" relative="1" as="geometry">
            <mxPoint x="431" y="188" as="sourcePoint" />
            <mxPoint x="382" y="172" as="targetPoint" />
          </mxGeometry>
        </mxCell>
        <mxCell id="7TMVgaN9HvynGizzWNEZ-36" value="" style="endArrow=none;html=1;rounded=0;exitX=1;exitY=0;exitDx=0;exitDy=0;entryX=0;entryY=1;entryDx=0;entryDy=0;shadow=0;" parent="1" source="KQ9klTBVaFzwKnCXzLHx-1" target="7TMVgaN9HvynGizzWNEZ-28" edge="1">
          <mxGeometry width="50" height="50" relative="1" as="geometry">
            <mxPoint x="408" y="225" as="sourcePoint" />
            <mxPoint x="392" y="182" as="targetPoint" />
          </mxGeometry>
        </mxCell>
        <mxCell id="7TMVgaN9HvynGizzWNEZ-37" value="&lt;u&gt;BloodTypeID&lt;/u&gt;" style="ellipse;whiteSpace=wrap;html=1;shadow=0;" parent="1" vertex="1">
          <mxGeometry x="75" y="128" width="80" height="30" as="geometry" />
        </mxCell>
        <mxCell id="7TMVgaN9HvynGizzWNEZ-38" value="BloodType" style="ellipse;whiteSpace=wrap;html=1;shadow=0;" parent="1" vertex="1">
          <mxGeometry x="158" y="128" width="70" height="30" as="geometry" />
        </mxCell>
        <mxCell id="7TMVgaN9HvynGizzWNEZ-39" value="" style="endArrow=none;html=1;rounded=0;exitX=0.25;exitY=0;exitDx=0;exitDy=0;entryX=0.5;entryY=1;entryDx=0;entryDy=0;shadow=0;" parent="1" source="7TMVgaN9HvynGizzWNEZ-8" target="7TMVgaN9HvynGizzWNEZ-37" edge="1">
          <mxGeometry width="50" height="50" relative="1" as="geometry">
            <mxPoint x="388" y="205" as="sourcePoint" />
            <mxPoint x="370" y="159" as="targetPoint" />
          </mxGeometry>
        </mxCell>
        <mxCell id="7TMVgaN9HvynGizzWNEZ-40" value="" style="endArrow=none;html=1;rounded=0;exitX=0.75;exitY=0;exitDx=0;exitDy=0;entryX=0.345;entryY=0.961;entryDx=0;entryDy=0;entryPerimeter=0;shadow=0;" parent="1" source="7TMVgaN9HvynGizzWNEZ-8" target="7TMVgaN9HvynGizzWNEZ-38" edge="1">
          <mxGeometry width="50" height="50" relative="1" as="geometry">
            <mxPoint x="139" y="205" as="sourcePoint" />
            <mxPoint x="114" y="168" as="targetPoint" />
          </mxGeometry>
        </mxCell>
        <mxCell id="7TMVgaN9HvynGizzWNEZ-41" value="&lt;u&gt;InsuranceProviderID&lt;/u&gt;" style="ellipse;whiteSpace=wrap;html=1;shadow=0;" parent="1" vertex="1">
          <mxGeometry x="515" y="128" width="130" height="30" as="geometry" />
        </mxCell>
        <mxCell id="7TMVgaN9HvynGizzWNEZ-43" value="PatientID(FK)" style="ellipse;whiteSpace=wrap;html=1;shadow=0;" parent="1" vertex="1">
          <mxGeometry x="680" y="128" width="90" height="30" as="geometry" />
        </mxCell>
        <mxCell id="7TMVgaN9HvynGizzWNEZ-44" value="InsuranceNumber" style="ellipse;whiteSpace=wrap;html=1;shadow=0;" parent="1" vertex="1">
          <mxGeometry x="690" y="180" width="110" height="30" as="geometry" />
        </mxCell>
        <mxCell id="7TMVgaN9HvynGizzWNEZ-45" value="InsuranceProviderName" style="ellipse;whiteSpace=wrap;html=1;shadow=0;" parent="1" vertex="1">
          <mxGeometry x="613" y="58" width="140" height="50" as="geometry" />
        </mxCell>
        <mxCell id="7TMVgaN9HvynGizzWNEZ-47" value="" style="endArrow=none;html=1;rounded=0;exitX=0.25;exitY=0;exitDx=0;exitDy=0;entryX=0.5;entryY=1;entryDx=0;entryDy=0;shadow=0;" parent="1" source="KQ9klTBVaFzwKnCXzLHx-6" target="7TMVgaN9HvynGizzWNEZ-41" edge="1">
          <mxGeometry width="50" height="50" relative="1" as="geometry">
            <mxPoint x="400" y="258" as="sourcePoint" />
            <mxPoint x="450" y="208" as="targetPoint" />
          </mxGeometry>
        </mxCell>
        <mxCell id="7TMVgaN9HvynGizzWNEZ-48" value="" style="endArrow=none;html=1;rounded=0;entryX=0.452;entryY=1.005;entryDx=0;entryDy=0;entryPerimeter=0;exitX=0.5;exitY=0;exitDx=0;exitDy=0;shadow=0;" parent="1" source="KQ9klTBVaFzwKnCXzLHx-6" target="7TMVgaN9HvynGizzWNEZ-45" edge="1">
          <mxGeometry width="50" height="50" relative="1" as="geometry">
            <mxPoint x="650" y="178" as="sourcePoint" />
            <mxPoint x="598" y="192" as="targetPoint" />
          </mxGeometry>
        </mxCell>
        <mxCell id="7TMVgaN9HvynGizzWNEZ-49" value="" style="endArrow=none;html=1;rounded=0;entryX=0;entryY=1;entryDx=0;entryDy=0;exitX=0.75;exitY=0;exitDx=0;exitDy=0;shadow=0;" parent="1" source="KQ9klTBVaFzwKnCXzLHx-6" target="7TMVgaN9HvynGizzWNEZ-43" edge="1">
          <mxGeometry width="50" height="50" relative="1" as="geometry">
            <mxPoint x="643" y="200" as="sourcePoint" />
            <mxPoint x="676" y="118" as="targetPoint" />
          </mxGeometry>
        </mxCell>
        <mxCell id="7TMVgaN9HvynGizzWNEZ-50" value="" style="endArrow=none;html=1;rounded=0;entryX=0;entryY=0.5;entryDx=0;entryDy=0;exitX=1;exitY=0.25;exitDx=0;exitDy=0;shadow=0;" parent="1" source="KQ9klTBVaFzwKnCXzLHx-6" target="7TMVgaN9HvynGizzWNEZ-44" edge="1">
          <mxGeometry width="50" height="50" relative="1" as="geometry">
            <mxPoint x="680" y="228" as="sourcePoint" />
            <mxPoint x="699" y="164" as="targetPoint" />
          </mxGeometry>
        </mxCell>
        <mxCell id="7TMVgaN9HvynGizzWNEZ-51" value="&lt;u&gt;AdmissionID&lt;/u&gt;" style="ellipse;whiteSpace=wrap;html=1;shadow=0;" parent="1" vertex="1">
          <mxGeometry x="201" y="373" width="82" height="30" as="geometry" />
        </mxCell>
        <mxCell id="7TMVgaN9HvynGizzWNEZ-52" value="PatientID(FK)" style="ellipse;whiteSpace=wrap;html=1;shadow=0;" parent="1" vertex="1">
          <mxGeometry x="215" y="317" width="90" height="30" as="geometry" />
        </mxCell>
        <mxCell id="7TMVgaN9HvynGizzWNEZ-53" value="DoctorID(FK)" style="ellipse;whiteSpace=wrap;html=1;shadow=0;" parent="1" vertex="1">
          <mxGeometry x="411" y="352" width="90" height="30" as="geometry" />
        </mxCell>
        <mxCell id="7TMVgaN9HvynGizzWNEZ-54" value="AdmissionDate" style="ellipse;whiteSpace=wrap;html=1;shadow=0;" parent="1" vertex="1">
          <mxGeometry x="294" y="347" width="90" height="30" as="geometry" />
        </mxCell>
        <mxCell id="7TMVgaN9HvynGizzWNEZ-55" value="DischargeDate" style="ellipse;whiteSpace=wrap;html=1;shadow=0;" parent="1" vertex="1">
          <mxGeometry x="490" y="377" width="90" height="30" as="geometry" />
        </mxCell>
        <mxCell id="7TMVgaN9HvynGizzWNEZ-56" value="" style="endArrow=none;html=1;rounded=0;entryX=0.5;entryY=0;entryDx=0;entryDy=0;endFill=0;exitX=0.5;exitY=1;exitDx=0;exitDy=0;fontStyle=1;strokeWidth=3;shadow=0;" parent="1" source="KQ9klTBVaFzwKnCXzLHx-1" target="KQ9klTBVaFzwKnCXzLHx-3" edge="1">
          <mxGeometry width="50" height="50" relative="1" as="geometry">
            <mxPoint x="430" y="250" as="sourcePoint" />
            <mxPoint x="470" y="241" as="targetPoint" />
          </mxGeometry>
        </mxCell>
        <mxCell id="7TMVgaN9HvynGizzWNEZ-58" value="" style="endArrow=none;html=1;rounded=0;entryX=0;entryY=0.5;entryDx=0;entryDy=0;exitX=1;exitY=0.5;exitDx=0;exitDy=0;shadow=0;" parent="1" source="KQ9klTBVaFzwKnCXzLHx-1" target="KQ9klTBVaFzwKnCXzLHx-7" edge="1">
          <mxGeometry width="50" height="50" relative="1" as="geometry">
            <mxPoint x="420" y="318" as="sourcePoint" />
            <mxPoint x="470" y="268" as="targetPoint" />
          </mxGeometry>
        </mxCell>
        <mxCell id="7TMVgaN9HvynGizzWNEZ-59" value="" style="endArrow=none;html=1;rounded=0;exitX=0.25;exitY=0;exitDx=0;exitDy=0;entryX=0.5;entryY=1;entryDx=0;entryDy=0;shadow=0;" parent="1" source="KQ9klTBVaFzwKnCXzLHx-2" target="7TMVgaN9HvynGizzWNEZ-52" edge="1">
          <mxGeometry width="50" height="50" relative="1" as="geometry">
            <mxPoint x="420" y="399" as="sourcePoint" />
            <mxPoint x="266" y="349" as="targetPoint" />
          </mxGeometry>
        </mxCell>
        <mxCell id="7TMVgaN9HvynGizzWNEZ-60" value="" style="endArrow=none;html=1;rounded=0;exitX=0.132;exitY=-0.027;exitDx=0;exitDy=0;entryX=0.959;entryY=0.861;entryDx=0;entryDy=0;entryPerimeter=0;exitPerimeter=0;shadow=0;" parent="1" source="KQ9klTBVaFzwKnCXzLHx-2" target="7TMVgaN9HvynGizzWNEZ-51" edge="1">
          <mxGeometry width="50" height="50" relative="1" as="geometry">
            <mxPoint x="386" y="488" as="sourcePoint" />
            <mxPoint x="338" y="350" as="targetPoint" />
          </mxGeometry>
        </mxCell>
        <mxCell id="7TMVgaN9HvynGizzWNEZ-61" value="" style="endArrow=none;html=1;rounded=0;entryX=0.238;entryY=0.929;entryDx=0;entryDy=0;entryPerimeter=0;exitX=0.933;exitY=-0.037;exitDx=0;exitDy=0;exitPerimeter=0;shadow=0;" parent="1" source="KQ9klTBVaFzwKnCXzLHx-2" target="7TMVgaN9HvynGizzWNEZ-55" edge="1">
          <mxGeometry width="50" height="50" relative="1" as="geometry">
            <mxPoint x="440" y="450" as="sourcePoint" />
            <mxPoint x="348" y="360" as="targetPoint" />
          </mxGeometry>
        </mxCell>
        <mxCell id="7TMVgaN9HvynGizzWNEZ-62" value="" style="endArrow=none;html=1;rounded=0;exitX=0.5;exitY=0;exitDx=0;exitDy=0;entryX=0.5;entryY=1;entryDx=0;entryDy=0;shadow=0;" parent="1" source="KQ9klTBVaFzwKnCXzLHx-2" target="7TMVgaN9HvynGizzWNEZ-53" edge="1">
          <mxGeometry width="50" height="50" relative="1" as="geometry">
            <mxPoint x="406" y="508" as="sourcePoint" />
            <mxPoint x="451.30999999999995" y="373.72" as="targetPoint" />
          </mxGeometry>
        </mxCell>
        <mxCell id="7TMVgaN9HvynGizzWNEZ-63" value="" style="endArrow=none;html=1;rounded=0;entryX=0.5;entryY=1;entryDx=0;entryDy=0;exitX=0.404;exitY=-0.003;exitDx=0;exitDy=0;exitPerimeter=0;shadow=0;" parent="1" source="KQ9klTBVaFzwKnCXzLHx-2" target="7TMVgaN9HvynGizzWNEZ-54" edge="1">
          <mxGeometry width="50" height="50" relative="1" as="geometry">
            <mxPoint x="380" y="460" as="sourcePoint" />
            <mxPoint x="327.8900000000001" y="373.72" as="targetPoint" />
          </mxGeometry>
        </mxCell>
        <mxCell id="7TMVgaN9HvynGizzWNEZ-65" value="&lt;u&gt;AdmissionTypeID&lt;/u&gt;" style="ellipse;whiteSpace=wrap;html=1;shadow=0;" parent="1" vertex="1">
          <mxGeometry x="8.75" y="373" width="112" height="30" as="geometry" />
        </mxCell>
        <mxCell id="7TMVgaN9HvynGizzWNEZ-66" value="AdmissionID(FK)" style="ellipse;whiteSpace=wrap;html=1;shadow=0;" parent="1" vertex="1">
          <mxGeometry x="58" y="317" width="107" height="30" as="geometry" />
        </mxCell>
        <mxCell id="7TMVgaN9HvynGizzWNEZ-67" value="AdmissionType" style="ellipse;whiteSpace=wrap;html=1;shadow=0;" parent="1" vertex="1">
          <mxGeometry x="139.5" y="260" width="107" height="30" as="geometry" />
        </mxCell>
        <mxCell id="7TMVgaN9HvynGizzWNEZ-68" value="BillingAmount" style="ellipse;whiteSpace=wrap;html=1;shadow=0;" parent="1" vertex="1">
          <mxGeometry x="663" y="373" width="90" height="30" as="geometry" />
        </mxCell>
        <mxCell id="7TMVgaN9HvynGizzWNEZ-69" value="&lt;u&gt;BillingID&lt;/u&gt;" style="ellipse;whiteSpace=wrap;html=1;shadow=0;" parent="1" vertex="1">
          <mxGeometry x="582" y="373" width="65" height="30" as="geometry" />
        </mxCell>
        <mxCell id="7TMVgaN9HvynGizzWNEZ-70" value="AdmissionID(FK)" style="ellipse;whiteSpace=wrap;html=1;shadow=0;" parent="1" vertex="1">
          <mxGeometry x="593" y="311" width="107" height="30" as="geometry" />
        </mxCell>
        <mxCell id="7TMVgaN9HvynGizzWNEZ-72" value="" style="endArrow=none;html=1;rounded=0;entryX=0.5;entryY=1;entryDx=0;entryDy=0;exitX=0.25;exitY=0;exitDx=0;exitDy=0;shadow=0;" parent="1" source="KQ9klTBVaFzwKnCXzLHx-18" target="7TMVgaN9HvynGizzWNEZ-69" edge="1">
          <mxGeometry width="50" height="50" relative="1" as="geometry">
            <mxPoint x="396" y="488" as="sourcePoint" />
            <mxPoint x="338" y="384" as="targetPoint" />
          </mxGeometry>
        </mxCell>
        <mxCell id="7TMVgaN9HvynGizzWNEZ-73" value="" style="endArrow=none;html=1;rounded=0;exitX=0.5;exitY=0;exitDx=0;exitDy=0;entryX=0.578;entryY=0.972;entryDx=0;entryDy=0;entryPerimeter=0;shadow=0;" parent="1" source="KQ9klTBVaFzwKnCXzLHx-18" target="7TMVgaN9HvynGizzWNEZ-70" edge="1">
          <mxGeometry width="50" height="50" relative="1" as="geometry">
            <mxPoint x="660" y="419" as="sourcePoint" />
            <mxPoint x="640" y="358" as="targetPoint" />
          </mxGeometry>
        </mxCell>
        <mxCell id="7TMVgaN9HvynGizzWNEZ-74" value="" style="endArrow=none;html=1;rounded=0;entryX=0.322;entryY=1.024;entryDx=0;entryDy=0;exitX=0.75;exitY=0;exitDx=0;exitDy=0;entryPerimeter=0;shadow=0;" parent="1" source="KQ9klTBVaFzwKnCXzLHx-18" target="7TMVgaN9HvynGizzWNEZ-68" edge="1">
          <mxGeometry width="50" height="50" relative="1" as="geometry">
            <mxPoint x="663" y="438" as="sourcePoint" />
            <mxPoint x="665" y="342" as="targetPoint" />
          </mxGeometry>
        </mxCell>
        <mxCell id="7TMVgaN9HvynGizzWNEZ-75" value="" style="endArrow=none;html=1;rounded=0;entryX=0.653;entryY=0.992;entryDx=0;entryDy=0;exitX=0.75;exitY=0;exitDx=0;exitDy=0;entryPerimeter=0;shadow=0;" parent="1" source="KQ9klTBVaFzwKnCXzLHx-70" target="7TMVgaN9HvynGizzWNEZ-67" edge="1">
          <mxGeometry width="50" height="50" relative="1" as="geometry">
            <mxPoint x="320" y="458" as="sourcePoint" />
            <mxPoint x="675" y="349" as="targetPoint" />
          </mxGeometry>
        </mxCell>
        <mxCell id="7TMVgaN9HvynGizzWNEZ-76" value="" style="endArrow=none;html=1;rounded=0;exitX=0.5;exitY=0;exitDx=0;exitDy=0;entryX=0.679;entryY=0.921;entryDx=0;entryDy=0;entryPerimeter=0;shadow=0;" parent="1" source="KQ9klTBVaFzwKnCXzLHx-70" target="7TMVgaN9HvynGizzWNEZ-66" edge="1">
          <mxGeometry width="50" height="50" relative="1" as="geometry">
            <mxPoint x="150" y="401" as="sourcePoint" />
            <mxPoint x="140" y="390" as="targetPoint" />
          </mxGeometry>
        </mxCell>
        <mxCell id="7TMVgaN9HvynGizzWNEZ-77" value="" style="endArrow=none;html=1;rounded=0;exitX=0.25;exitY=0;exitDx=0;exitDy=0;entryX=0.792;entryY=0.953;entryDx=0;entryDy=0;entryPerimeter=0;shadow=0;" parent="1" source="KQ9klTBVaFzwKnCXzLHx-70" target="7TMVgaN9HvynGizzWNEZ-65" edge="1">
          <mxGeometry width="50" height="50" relative="1" as="geometry">
            <mxPoint x="66" y="439" as="sourcePoint" />
            <mxPoint x="60" y="438" as="targetPoint" />
          </mxGeometry>
        </mxCell>
        <mxCell id="7TMVgaN9HvynGizzWNEZ-80" value="&lt;u&gt;TestID&lt;/u&gt;" style="ellipse;whiteSpace=wrap;html=1;shadow=0;" parent="1" vertex="1">
          <mxGeometry x="110" y="470" width="54" height="28" as="geometry" />
        </mxCell>
        <mxCell id="7TMVgaN9HvynGizzWNEZ-81" value="TestName" style="ellipse;whiteSpace=wrap;html=1;shadow=0;" parent="1" vertex="1">
          <mxGeometry x="14.5" y="473" width="66.5" height="30" as="geometry" />
        </mxCell>
        <mxCell id="7TMVgaN9HvynGizzWNEZ-82" value="" style="endArrow=none;html=1;rounded=0;exitX=0;exitY=1;exitDx=0;exitDy=0;entryX=0.25;entryY=0;entryDx=0;entryDy=0;shadow=0;" parent="1" source="7TMVgaN9HvynGizzWNEZ-80" target="KQ9klTBVaFzwKnCXzLHx-48" edge="1">
          <mxGeometry width="50" height="50" relative="1" as="geometry">
            <mxPoint x="400" y="561" as="sourcePoint" />
            <mxPoint x="450" y="511" as="targetPoint" />
          </mxGeometry>
        </mxCell>
        <mxCell id="7TMVgaN9HvynGizzWNEZ-83" value="" style="endArrow=none;html=1;rounded=0;entryX=0;entryY=0.5;entryDx=0;entryDy=0;exitX=1;exitY=1;exitDx=0;exitDy=0;shadow=0;" parent="1" source="7TMVgaN9HvynGizzWNEZ-81" target="KQ9klTBVaFzwKnCXzLHx-48" edge="1">
          <mxGeometry width="50" height="50" relative="1" as="geometry">
            <mxPoint x="80" y="538" as="sourcePoint" />
            <mxPoint x="123" y="523" as="targetPoint" />
          </mxGeometry>
        </mxCell>
        <mxCell id="7TMVgaN9HvynGizzWNEZ-84" value="AdmissionID(FK)" style="ellipse;whiteSpace=wrap;html=1;shadow=0;" parent="1" vertex="1">
          <mxGeometry x="43" y="800" width="107" height="30" as="geometry" />
        </mxCell>
        <mxCell id="7TMVgaN9HvynGizzWNEZ-85" value="TestID(FK)" style="ellipse;whiteSpace=wrap;html=1;shadow=0;" parent="1" vertex="1">
          <mxGeometry x="104.5" y="751" width="61" height="31" as="geometry" />
        </mxCell>
        <mxCell id="7TMVgaN9HvynGizzWNEZ-86" value="TestResults" style="ellipse;whiteSpace=wrap;html=1;shadow=0;" parent="1" vertex="1">
          <mxGeometry x="11" y="748" width="70" height="33" as="geometry" />
        </mxCell>
        <mxCell id="7TMVgaN9HvynGizzWNEZ-87" value="" style="endArrow=none;html=1;rounded=0;entryX=0.25;entryY=1;entryDx=0;entryDy=0;exitX=0.707;exitY=0.051;exitDx=0;exitDy=0;exitPerimeter=0;shadow=0;" parent="1" source="7TMVgaN9HvynGizzWNEZ-86" target="KQ9klTBVaFzwKnCXzLHx-74" edge="1">
          <mxGeometry width="50" height="50" relative="1" as="geometry">
            <mxPoint x="48" y="738" as="sourcePoint" />
            <mxPoint x="228" y="761" as="targetPoint" />
          </mxGeometry>
        </mxCell>
        <mxCell id="7TMVgaN9HvynGizzWNEZ-88" value="" style="endArrow=none;html=1;rounded=0;entryX=0.75;entryY=1;entryDx=0;entryDy=0;exitX=0.34;exitY=0.023;exitDx=0;exitDy=0;exitPerimeter=0;shadow=0;" parent="1" source="7TMVgaN9HvynGizzWNEZ-85" target="KQ9klTBVaFzwKnCXzLHx-74" edge="1">
          <mxGeometry width="50" height="50" relative="1" as="geometry">
            <mxPoint x="70" y="762" as="sourcePoint" />
            <mxPoint x="87" y="728" as="targetPoint" />
          </mxGeometry>
        </mxCell>
        <mxCell id="7TMVgaN9HvynGizzWNEZ-89" value="" style="endArrow=none;html=1;rounded=0;entryX=0.5;entryY=1;entryDx=0;entryDy=0;exitX=0.5;exitY=0;exitDx=0;exitDy=0;shadow=0;" parent="1" source="7TMVgaN9HvynGizzWNEZ-84" target="KQ9klTBVaFzwKnCXzLHx-74" edge="1">
          <mxGeometry width="50" height="50" relative="1" as="geometry">
            <mxPoint x="97" y="788" as="sourcePoint" />
            <mxPoint x="97" y="738" as="targetPoint" />
          </mxGeometry>
        </mxCell>
        <mxCell id="7TMVgaN9HvynGizzWNEZ-91" value="RoomNumber" style="ellipse;whiteSpace=wrap;html=1;shadow=0;" parent="1" vertex="1">
          <mxGeometry x="228" y="638" width="80" height="31" as="geometry" />
        </mxCell>
        <mxCell id="7TMVgaN9HvynGizzWNEZ-92" value="&lt;u&gt;RoomID&lt;/u&gt;" style="ellipse;whiteSpace=wrap;html=1;shadow=0;" parent="1" vertex="1">
          <mxGeometry x="155" y="566.5" width="55" height="31" as="geometry" />
        </mxCell>
        <mxCell id="7TMVgaN9HvynGizzWNEZ-95" value="" style="endArrow=none;html=1;rounded=0;entryX=0.5;entryY=1;entryDx=0;entryDy=0;exitX=0.5;exitY=0;exitDx=0;exitDy=0;shadow=0;" parent="1" source="KQ9klTBVaFzwKnCXzLHx-57" target="7TMVgaN9HvynGizzWNEZ-92" edge="1">
          <mxGeometry width="50" height="50" relative="1" as="geometry">
            <mxPoint x="203" y="638" as="sourcePoint" />
            <mxPoint x="340" y="610" as="targetPoint" />
          </mxGeometry>
        </mxCell>
        <mxCell id="7TMVgaN9HvynGizzWNEZ-96" value="" style="endArrow=none;html=1;rounded=0;exitX=1;exitY=0.5;exitDx=0;exitDy=0;entryX=0;entryY=0.5;entryDx=0;entryDy=0;shadow=0;" parent="1" source="KQ9klTBVaFzwKnCXzLHx-57" target="7TMVgaN9HvynGizzWNEZ-91" edge="1">
          <mxGeometry width="50" height="50" relative="1" as="geometry">
            <mxPoint x="290" y="680" as="sourcePoint" />
            <mxPoint x="340" y="630" as="targetPoint" />
          </mxGeometry>
        </mxCell>
        <mxCell id="7TMVgaN9HvynGizzWNEZ-97" value="HospitalName" style="ellipse;whiteSpace=wrap;html=1;shadow=0;" parent="1" vertex="1">
          <mxGeometry x="270" y="820" width="80" height="31" as="geometry" />
        </mxCell>
        <mxCell id="7TMVgaN9HvynGizzWNEZ-98" value="&lt;u&gt;HospitalID&lt;/u&gt;" style="ellipse;whiteSpace=wrap;html=1;shadow=0;" parent="1" vertex="1">
          <mxGeometry x="221" y="781" width="69" height="31" as="geometry" />
        </mxCell>
        <mxCell id="7TMVgaN9HvynGizzWNEZ-99" value="" style="endArrow=none;html=1;rounded=0;entryX=0;entryY=1;entryDx=0;entryDy=0;exitX=1;exitY=0;exitDx=0;exitDy=0;shadow=0;" parent="1" source="7TMVgaN9HvynGizzWNEZ-98" target="KQ9klTBVaFzwKnCXzLHx-50" edge="1">
          <mxGeometry width="50" height="50" relative="1" as="geometry">
            <mxPoint x="320" y="880" as="sourcePoint" />
            <mxPoint x="370" y="830" as="targetPoint" />
          </mxGeometry>
        </mxCell>
        <mxCell id="7TMVgaN9HvynGizzWNEZ-100" value="" style="endArrow=none;html=1;rounded=0;entryX=0.25;entryY=1;entryDx=0;entryDy=0;exitX=0.5;exitY=0;exitDx=0;exitDy=0;shadow=0;" parent="1" source="7TMVgaN9HvynGizzWNEZ-97" target="KQ9klTBVaFzwKnCXzLHx-50" edge="1">
          <mxGeometry width="50" height="50" relative="1" as="geometry">
            <mxPoint x="320" y="880" as="sourcePoint" />
            <mxPoint x="370" y="830" as="targetPoint" />
          </mxGeometry>
        </mxCell>
        <mxCell id="7TMVgaN9HvynGizzWNEZ-101" value="DoctorName" style="ellipse;whiteSpace=wrap;html=1;shadow=0;" parent="1" vertex="1">
          <mxGeometry x="420" y="821" width="71" height="30" as="geometry" />
        </mxCell>
        <mxCell id="7TMVgaN9HvynGizzWNEZ-102" value="&lt;u&gt;DoctorID&lt;/u&gt;" style="ellipse;whiteSpace=wrap;html=1;shadow=0;" parent="1" vertex="1">
          <mxGeometry x="473" y="782" width="69" height="31" as="geometry" />
        </mxCell>
        <mxCell id="7TMVgaN9HvynGizzWNEZ-103" value="" style="endArrow=none;html=1;rounded=0;entryX=0.75;entryY=1;entryDx=0;entryDy=0;shadow=0;" parent="1" source="7TMVgaN9HvynGizzWNEZ-102" target="KQ9klTBVaFzwKnCXzLHx-46" edge="1">
          <mxGeometry width="50" height="50" relative="1" as="geometry">
            <mxPoint x="532.5" y="910" as="sourcePoint" />
            <mxPoint x="531.5" y="783" as="targetPoint" />
          </mxGeometry>
        </mxCell>
        <mxCell id="7TMVgaN9HvynGizzWNEZ-104" value="" style="endArrow=none;html=1;rounded=0;entryX=0.648;entryY=1.046;entryDx=0;entryDy=0;exitX=0.5;exitY=0;exitDx=0;exitDy=0;entryPerimeter=0;shadow=0;" parent="1" source="7TMVgaN9HvynGizzWNEZ-101" target="KQ9klTBVaFzwKnCXzLHx-46" edge="1">
          <mxGeometry width="50" height="50" relative="1" as="geometry">
            <mxPoint x="532.5" y="910" as="sourcePoint" />
            <mxPoint x="546.5" y="783" as="targetPoint" />
          </mxGeometry>
        </mxCell>
        <mxCell id="7TMVgaN9HvynGizzWNEZ-105" style="edgeStyle=orthogonalEdgeStyle;rounded=0;orthogonalLoop=1;jettySize=auto;html=1;exitX=0.5;exitY=1;exitDx=0;exitDy=0;shadow=0;" parent="1" source="7TMVgaN9HvynGizzWNEZ-101" target="7TMVgaN9HvynGizzWNEZ-101" edge="1">
          <mxGeometry relative="1" as="geometry" />
        </mxCell>
        <mxCell id="7TMVgaN9HvynGizzWNEZ-106" value="&lt;u&gt;MedicationID&lt;/u&gt;" style="ellipse;whiteSpace=wrap;html=1;shadow=0;" parent="1" vertex="1">
          <mxGeometry x="638" y="468" width="90" height="30" as="geometry" />
        </mxCell>
        <mxCell id="7TMVgaN9HvynGizzWNEZ-107" value="DiagnosisID(FK)" style="ellipse;whiteSpace=wrap;html=1;shadow=0;" parent="1" vertex="1">
          <mxGeometry x="728" y="448" width="107" height="30" as="geometry" />
        </mxCell>
        <mxCell id="7TMVgaN9HvynGizzWNEZ-108" value="MedicineName" style="ellipse;whiteSpace=wrap;html=1;shadow=0;" parent="1" vertex="1">
          <mxGeometry x="745" y="498" width="90" height="30" as="geometry" />
        </mxCell>
        <mxCell id="7TMVgaN9HvynGizzWNEZ-109" value="&lt;u&gt;DiagnosisID&lt;/u&gt;" style="ellipse;whiteSpace=wrap;html=1;shadow=0;" parent="1" vertex="1">
          <mxGeometry x="533" y="655" width="90" height="30" as="geometry" />
        </mxCell>
        <mxCell id="7TMVgaN9HvynGizzWNEZ-110" value="MedicalCondition" style="ellipse;whiteSpace=wrap;html=1;shadow=0;" parent="1" vertex="1">
          <mxGeometry x="633.75" y="653.5" width="98.5" height="33" as="geometry" />
        </mxCell>
        <mxCell id="7TMVgaN9HvynGizzWNEZ-111" value="" style="endArrow=none;html=1;rounded=0;entryX=0.25;entryY=1;entryDx=0;entryDy=0;exitX=0.5;exitY=0;exitDx=0;exitDy=0;shadow=0;" parent="1" source="7TMVgaN9HvynGizzWNEZ-109" target="KQ9klTBVaFzwKnCXzLHx-25" edge="1">
          <mxGeometry width="50" height="50" relative="1" as="geometry">
            <mxPoint x="610" y="690" as="sourcePoint" />
            <mxPoint x="660" y="640" as="targetPoint" />
          </mxGeometry>
        </mxCell>
        <mxCell id="7TMVgaN9HvynGizzWNEZ-112" value="" style="endArrow=none;html=1;rounded=0;entryX=0.672;entryY=1.043;entryDx=0;entryDy=0;exitX=0.5;exitY=0;exitDx=0;exitDy=0;entryPerimeter=0;shadow=0;" parent="1" source="7TMVgaN9HvynGizzWNEZ-110" target="KQ9klTBVaFzwKnCXzLHx-25" edge="1">
          <mxGeometry width="50" height="50" relative="1" as="geometry">
            <mxPoint x="601" y="661" as="sourcePoint" />
            <mxPoint x="628" y="623" as="targetPoint" />
          </mxGeometry>
        </mxCell>
        <mxCell id="7TMVgaN9HvynGizzWNEZ-113" value="" style="endArrow=none;html=1;rounded=0;entryX=0.5;entryY=1;entryDx=0;entryDy=0;exitX=0.5;exitY=0;exitDx=0;exitDy=0;shadow=0;" parent="1" source="KQ9klTBVaFzwKnCXzLHx-24" target="7TMVgaN9HvynGizzWNEZ-106" edge="1">
          <mxGeometry width="50" height="50" relative="1" as="geometry">
            <mxPoint x="550" y="520" as="sourcePoint" />
            <mxPoint x="600" y="470" as="targetPoint" />
          </mxGeometry>
        </mxCell>
        <mxCell id="7TMVgaN9HvynGizzWNEZ-114" value="" style="endArrow=none;html=1;rounded=0;entryX=0.5;entryY=1;entryDx=0;entryDy=0;exitX=1;exitY=0;exitDx=0;exitDy=0;shadow=0;" parent="1" source="KQ9klTBVaFzwKnCXzLHx-24" target="7TMVgaN9HvynGizzWNEZ-107" edge="1">
          <mxGeometry width="50" height="50" relative="1" as="geometry">
            <mxPoint x="688" y="523" as="sourcePoint" />
            <mxPoint x="693" y="508" as="targetPoint" />
          </mxGeometry>
        </mxCell>
        <mxCell id="7TMVgaN9HvynGizzWNEZ-115" value="" style="endArrow=none;html=1;rounded=0;entryX=0;entryY=0.5;entryDx=0;entryDy=0;exitX=1;exitY=0.25;exitDx=0;exitDy=0;shadow=0;" parent="1" source="KQ9klTBVaFzwKnCXzLHx-24" target="7TMVgaN9HvynGizzWNEZ-108" edge="1">
          <mxGeometry width="50" height="50" relative="1" as="geometry">
            <mxPoint x="723" y="523" as="sourcePoint" />
            <mxPoint x="792" y="488" as="targetPoint" />
          </mxGeometry>
        </mxCell>
        <mxCell id="7TMVgaN9HvynGizzWNEZ-118" value="HospitalID(FK)" style="ellipse;whiteSpace=wrap;html=1;shadow=0;" parent="1" vertex="1">
          <mxGeometry x="502" y="291" width="90" height="30" as="geometry" />
        </mxCell>
        <mxCell id="7TMVgaN9HvynGizzWNEZ-119" value="" style="endArrow=none;html=1;rounded=0;exitX=0.75;exitY=0;exitDx=0;exitDy=0;entryX=0.5;entryY=1;entryDx=0;entryDy=0;shadow=0;" parent="1" source="KQ9klTBVaFzwKnCXzLHx-2" target="7TMVgaN9HvynGizzWNEZ-118" edge="1">
          <mxGeometry width="50" height="50" relative="1" as="geometry">
            <mxPoint x="400" y="470" as="sourcePoint" />
            <mxPoint x="560" y="300" as="targetPoint" />
          </mxGeometry>
        </mxCell>
        <mxCell id="7TMVgaN9HvynGizzWNEZ-120" value="HospitalID(FK)" style="ellipse;whiteSpace=wrap;html=1;shadow=0;" parent="1" vertex="1">
          <mxGeometry x="221" y="687" width="89" height="31" as="geometry" />
        </mxCell>
        <mxCell id="7TMVgaN9HvynGizzWNEZ-121" value="" style="endArrow=none;html=1;rounded=0;entryX=1;entryY=1;entryDx=0;entryDy=0;exitX=0;exitY=0;exitDx=0;exitDy=0;shadow=0;" parent="1" source="7TMVgaN9HvynGizzWNEZ-120" target="KQ9klTBVaFzwKnCXzLHx-57" edge="1">
          <mxGeometry width="50" height="50" relative="1" as="geometry">
            <mxPoint x="350" y="720" as="sourcePoint" />
            <mxPoint x="400" y="670" as="targetPoint" />
          </mxGeometry>
        </mxCell>
        <mxCell id="7TMVgaN9HvynGizzWNEZ-123" value="HospitalID(FK)" style="ellipse;whiteSpace=wrap;html=1;shadow=0;" parent="1" vertex="1">
          <mxGeometry x="507.5" y="730" width="92.5" height="37.5" as="geometry" />
        </mxCell>
        <mxCell id="7TMVgaN9HvynGizzWNEZ-124" value="" style="endArrow=none;html=1;rounded=0;entryX=1;entryY=0.5;entryDx=0;entryDy=0;exitX=0;exitY=0.5;exitDx=0;exitDy=0;shadow=0;" parent="1" source="7TMVgaN9HvynGizzWNEZ-123" target="KQ9klTBVaFzwKnCXzLHx-46" edge="1">
          <mxGeometry width="50" height="50" relative="1" as="geometry">
            <mxPoint x="606.5" y="835.5" as="sourcePoint" />
            <mxPoint x="608.5" y="708.5" as="targetPoint" />
          </mxGeometry>
        </mxCell>
        <mxCell id="7TMVgaN9HvynGizzWNEZ-126" value="MedicationID(FK)" style="ellipse;whiteSpace=wrap;html=1;shadow=0;" parent="1" vertex="1">
          <mxGeometry x="402" y="317" width="102" height="30" as="geometry" />
        </mxCell>
        <mxCell id="7TMVgaN9HvynGizzWNEZ-127" value="" style="endArrow=none;html=1;rounded=0;exitX=0.5;exitY=0;exitDx=0;exitDy=0;entryX=0.087;entryY=0.846;entryDx=0;entryDy=0;entryPerimeter=0;shadow=0;" parent="1" source="KQ9klTBVaFzwKnCXzLHx-2" target="7TMVgaN9HvynGizzWNEZ-126" edge="1">
          <mxGeometry width="50" height="50" relative="1" as="geometry">
            <mxPoint x="450" y="420" as="sourcePoint" />
            <mxPoint x="500" y="370" as="targetPoint" />
          </mxGeometry>
        </mxCell>
      </root>
    </mxGraphModel>
  </diagram>
</mxfile>
